<svg width="347" height="186" viewBox="0 0 347 186" fill="none" xmlns="http://www.w3.org/2000/svg">
<path d="M37.69 115.696C34.906 115.696 32.5667 115.387 30.672 114.768C28.816 114.149 27.25 113.299 25.974 112.216C24.698 111.133 23.3833 109.683 22.03 107.866L27.54 103.284C29.1253 105.488 30.6527 107.054 32.122 107.982C33.63 108.871 35.486 109.316 37.69 109.316C40.7447 109.316 42.968 108.871 44.36 107.982C45.752 107.093 46.448 105.662 46.448 103.69C46.448 102.685 46.1193 101.873 45.462 101.254C44.8047 100.597 43.664 99.9973 42.04 99.456C40.4547 98.9147 38.0767 98.3153 34.906 97.658C31.194 96.8847 28.4293 95.512 26.612 93.54C24.8333 91.5293 23.944 88.8613 23.944 85.536C23.944 83.1387 24.5433 81.0507 25.742 79.272C26.9793 77.4933 28.7193 76.1207 30.962 75.154C33.2047 74.1873 35.8147 73.704 38.792 73.704C42.6587 73.704 45.7327 74.284 48.014 75.444C50.2953 76.5653 52.1513 78.228 53.582 80.432L48.188 84.84C46.9893 83.6413 45.984 82.7327 45.172 82.114C44.3987 81.4567 43.5093 80.954 42.504 80.606C41.4987 80.258 40.2613 80.084 38.792 80.084C36.588 80.084 34.9253 80.5673 33.804 81.534C32.6827 82.5007 32.122 83.8927 32.122 85.71C32.122 87.4113 32.8373 88.668 34.268 89.48C35.6987 90.2533 37.5353 90.8913 39.778 91.394C43.1033 92.09 45.752 92.8053 47.724 93.54C49.696 94.2747 51.3393 95.454 52.654 97.078C53.9687 98.702 54.626 100.925 54.626 103.748C54.626 107.769 53.2147 110.766 50.392 112.738C47.608 114.71 43.374 115.696 37.69 115.696ZM71.8978 115.696C67.8764 115.696 64.7831 114.768 62.6178 112.912C60.4524 111.056 59.3698 108.407 59.3698 104.966V97.774C59.3698 94.3327 60.4524 91.684 62.6178 89.828C64.7831 87.972 67.8764 87.044 71.8978 87.044C75.9191 87.044 79.0124 87.972 81.1778 89.828C83.3431 91.684 84.4258 94.3327 84.4258 97.774V104.966C84.4258 108.407 83.3431 111.056 81.1778 112.912C79.0124 114.768 75.9191 115.696 71.8978 115.696ZM71.8978 109.896C73.4831 109.896 74.7011 109.471 75.5518 108.62C76.4411 107.769 76.8858 106.551 76.8858 104.966V97.774C76.8858 96.1887 76.4411 94.9707 75.5518 94.12C74.7011 93.2693 73.4831 92.844 71.8978 92.844C70.3124 92.844 69.0751 93.2693 68.1858 94.12C67.3351 94.9707 66.9098 96.1887 66.9098 97.774V104.966C66.9098 106.551 67.3351 107.769 68.1858 108.62C69.0751 109.471 70.3124 109.896 71.8978 109.896ZM102.201 115.696C98.1792 115.696 95.0858 114.768 92.9205 112.912C90.7552 111.056 89.6725 108.407 89.6725 104.966V97.774C89.6725 94.3327 90.7552 91.684 92.9205 89.828C95.0858 87.972 98.1792 87.044 102.201 87.044C107.227 87.044 110.823 88.5713 112.989 91.626L107.827 95.802C106.899 94.7193 106.048 93.9653 105.275 93.54C104.501 93.076 103.477 92.844 102.201 92.844C100.615 92.844 99.3778 93.2693 98.4885 94.12C97.6378 94.9707 97.2125 96.1887 97.2125 97.774V104.966C97.2125 106.551 97.6378 107.769 98.4885 108.62C99.3778 109.471 100.615 109.896 102.201 109.896C103.477 109.896 104.501 109.683 105.275 109.258C106.048 108.794 106.899 108.021 107.827 106.938L112.989 111.114C111.906 112.661 110.514 113.821 108.813 114.594C107.111 115.329 104.907 115.696 102.201 115.696ZM122.083 84.086C120.884 84.086 119.859 83.6607 119.009 82.81C118.158 81.9593 117.733 80.9347 117.733 79.736C117.733 78.576 118.158 77.5707 119.009 76.72C119.859 75.8307 120.884 75.386 122.083 75.386C123.243 75.386 124.248 75.8307 125.099 76.72C125.988 77.5707 126.433 78.576 126.433 79.736C126.433 80.9347 125.988 81.9593 125.099 82.81C124.248 83.6607 123.243 84.086 122.083 84.086ZM123.591 115.696C121.619 114.691 120.246 113.55 119.473 112.274C118.699 110.959 118.313 109.142 118.313 106.822V87.74H125.853V106.59C125.853 107.634 126.046 108.485 126.433 109.142C126.858 109.799 127.593 110.515 128.637 111.288L123.591 115.696ZM157.137 106.59C157.137 107.634 157.331 108.485 157.717 109.142C158.143 109.799 158.877 110.515 159.921 111.288L154.875 115.696C152.671 114.575 151.163 113.163 150.351 111.462C149.501 112.661 148.341 113.666 146.871 114.478C145.402 115.29 143.585 115.696 141.419 115.696C138.674 115.696 136.489 115 134.865 113.608C133.241 112.177 132.429 110.167 132.429 107.576C132.429 105.256 133.029 103.477 134.227 102.24C135.465 100.964 136.876 100.094 138.461 99.63C140.047 99.166 141.806 98.8373 143.739 98.644L146.523 98.354C147.645 98.238 148.418 98.0447 148.843 97.774C149.307 97.5033 149.559 97.0587 149.597 96.44C149.52 95.28 149.133 94.294 148.437 93.482C147.78 92.67 146.504 92.264 144.609 92.264C143.372 92.264 142.289 92.496 141.361 92.96C140.433 93.424 139.486 94.178 138.519 95.222L133.357 91.626C134.479 90.1567 135.89 89.0353 137.591 88.262C139.293 87.45 141.632 87.044 144.609 87.044C152.961 87.044 157.137 90.4273 157.137 97.194V106.59ZM143.333 110.302C145.344 110.302 146.891 109.819 147.973 108.852C149.056 107.847 149.597 106.629 149.597 105.198V102.762C148.979 102.994 147.799 103.207 146.059 103.4L144.319 103.574C143.005 103.69 141.903 103.999 141.013 104.502C140.124 104.966 139.679 105.855 139.679 107.17C139.679 108.175 140.008 108.949 140.665 109.49C141.323 110.031 142.212 110.302 143.333 110.302ZM169.301 115.696C167.329 114.691 165.956 113.55 165.183 112.274C164.41 110.959 164.023 109.142 164.023 106.822V80.606C164.023 79.562 163.81 78.7113 163.385 78.054C162.998 77.3967 162.283 76.6813 161.239 75.908L166.285 71.5C168.257 72.5053 169.63 73.6653 170.403 74.98C171.176 76.256 171.563 78.054 171.563 80.374V106.59C171.563 107.634 171.756 108.485 172.143 109.142C172.568 109.799 173.303 110.515 174.347 111.288L169.301 115.696ZM180.748 74.4H184.982C187.109 74.4 188.81 74.69 190.086 75.27C191.362 75.85 192.464 76.778 193.392 78.054C194.32 79.2913 195.403 81.1667 196.64 83.68L200.004 90.466L203.368 83.68C204.606 81.1667 205.688 79.2913 206.616 78.054C207.544 76.778 208.646 75.85 209.922 75.27C211.198 74.69 212.9 74.4 215.026 74.4H219.26V115H211.836V82.926C211.372 82.926 210.986 83.1387 210.676 83.564C210.367 83.9893 209.903 84.7433 209.284 85.826L200.004 103.052L190.724 85.826C190.106 84.7433 189.642 83.9893 189.332 83.564C189.023 83.1387 188.636 82.9067 188.172 82.868V115H180.748V74.4ZM252.493 106.474C252.493 107.518 252.687 108.369 253.073 109.026C253.499 109.683 254.233 110.399 255.277 111.172L250.231 115.58C248.955 114.923 247.95 114.227 247.215 113.492C246.481 112.757 245.92 111.887 245.533 110.882C243.755 114.091 240.99 115.696 237.239 115.696C234.185 115.696 231.826 114.884 230.163 113.26C228.501 111.636 227.669 109.316 227.669 106.3V87.74H235.209V105.604C235.209 106.919 235.577 107.963 236.311 108.736C237.085 109.509 238.129 109.896 239.443 109.896C241.995 109.896 243.832 108.233 244.953 104.908V87.74H252.493V106.474ZM268.837 115.696C266.671 115.696 264.912 115.483 263.559 115.058C262.205 114.671 261.123 114.13 260.311 113.434C259.499 112.738 258.648 111.791 257.759 110.592L262.457 106.59C263.462 107.827 264.39 108.697 265.241 109.2C266.13 109.664 267.329 109.896 268.837 109.896C270.499 109.896 271.698 109.703 272.433 109.316C273.206 108.891 273.593 108.233 273.593 107.344C273.593 106.493 273.109 105.836 272.143 105.372C271.215 104.908 269.378 104.444 266.633 103.98C261.219 102.936 258.513 99.9973 258.513 95.164C258.513 92.6893 259.499 90.7173 261.471 89.248C263.443 87.7787 266.072 87.044 269.359 87.044C272.104 87.044 274.269 87.45 275.855 88.262C277.479 89.0353 278.793 90.176 279.799 91.684L275.159 95.628C274.153 94.6227 273.245 93.9073 272.433 93.482C271.621 93.0567 270.596 92.844 269.359 92.844C266.884 92.844 265.647 93.714 265.647 95.454C265.647 96.266 266.053 96.8847 266.865 97.31C267.715 97.7353 268.779 98.064 270.055 98.296C272.452 98.8373 274.347 99.398 275.739 99.978C277.169 100.519 278.349 101.389 279.277 102.588C280.243 103.787 280.727 105.43 280.727 107.518C280.727 110.302 279.741 112.371 277.769 113.724C275.797 115.039 272.819 115.696 268.837 115.696ZM289.399 84.086C288.2 84.086 287.176 83.6607 286.325 82.81C285.474 81.9593 285.049 80.9347 285.049 79.736C285.049 78.576 285.474 77.5707 286.325 76.72C287.176 75.8307 288.2 75.386 289.399 75.386C290.559 75.386 291.564 75.8307 292.415 76.72C293.304 77.5707 293.749 78.576 293.749 79.736C293.749 80.9347 293.304 81.9593 292.415 82.81C291.564 83.6607 290.559 84.086 289.399 84.086ZM290.907 115.696C288.935 114.691 287.562 113.55 286.789 112.274C286.016 110.959 285.629 109.142 285.629 106.822V87.74H293.169V106.59C293.169 107.634 293.362 108.485 293.749 109.142C294.174 109.799 294.909 110.515 295.953 111.288L290.907 115.696ZM312.847 115.696C308.826 115.696 305.732 114.768 303.567 112.912C301.402 111.056 300.319 108.407 300.319 104.966V97.774C300.319 94.3327 301.402 91.684 303.567 89.828C305.732 87.972 308.826 87.044 312.847 87.044C317.874 87.044 321.47 88.5713 323.635 91.626L318.473 95.802C317.545 94.7193 316.694 93.9653 315.921 93.54C315.148 93.076 314.123 92.844 312.847 92.844C311.262 92.844 310.024 93.2693 309.135 94.12C308.284 94.9707 307.859 96.1887 307.859 97.774V104.966C307.859 106.551 308.284 107.769 309.135 108.62C310.024 109.471 311.262 109.896 312.847 109.896C314.123 109.896 315.148 109.683 315.921 109.258C316.694 108.794 317.545 108.021 318.473 106.938L323.635 111.114C322.552 112.661 321.16 113.821 319.459 114.594C317.758 115.329 315.554 115.696 312.847 115.696Z" fill="url(#paint0_linear_5_6)"/>
<defs>
<linearGradient id="paint0_linear_5_6" x1="178" y1="55" x2="178" y2="164" gradientUnits="userSpaceOnUse">
<stop offset="0.4" stop-color="#4F19E8" stop-opacity="0.82"/>
<stop offset="0.58" stop-color="white" stop-opacity="0"/>
<stop offset="0.79" stop-opacity="0.81"/>
</linearGradient>
</defs>
</svg>
